<?xml version="1.0" encoding="iso-8859-1"?>
<!-- Generator: Adobe Illustrator 21.0.0, SVG Export Plug-In . SVG Version: 6.00 Build 0)  -->
<svg xmlns="http://www.w3.org/2000/svg" xmlns:xlink="http://www.w3.org/1999/xlink" version="1.1" id="Capa_1" x="0px" y="0px" viewBox="0 0 45.231 45.231" style="enable-background:new 0 0 45.231 45.231;" xml:space="preserve" width="512" height="512">
<g>
	<g id="_Group__449_">
		
			<ellipse id="_Ellipse__512_" style="opacity:0.15;fill:#45413C;enable-background:new    ;" cx="20.245" cy="43.591" rx="12.6" ry="1.64"/>
		<path style="fill:#FFE500;" d="M36.675,21.741c-0.392-1.351-0.574-2.754-0.54-4.16c0.052-1.566-0.553-3.082-1.67-4.18l-0.94-0.93    c-1.093-1.118-2.607-1.725-4.17-1.67c-1.411,0.023-2.817-0.169-4.17-0.57c-5.62-1.51-11.73,0.75-16.18,5.19s-6.7,10.59-5.19,16.22    c0.388,1.351,0.567,2.754,0.53,4.16c-0.044,1.566,0.565,3.08,1.68,4.18l0.93,0.93c1.098,1.117,2.614,1.722,4.18,1.67    c1.406-0.033,2.809,0.15,4.16,0.54c5.63,1.51,11.74-0.75,16.18-5.19S38.175,27.371,36.675,21.741z"/>
		<path id="_Path__525_" style="fill:#FFF48C;" d="M9.005,20.451c4.45-4.44,10.56-6.7,16.18-5.19c1.354,0.391,2.761,0.573,4.17,0.54    c1.563-0.055,3.077,0.552,4.17,1.67l0.94,0.93c1.117,1.098,1.722,2.614,1.67,4.18c-0.033,1.406,0.149,2.809,0.54,4.16    c0.09,0.36,0.17,0.72,0.24,1.09c0.356-2.024,0.274-4.1-0.24-6.09c-0.392-1.351-0.574-2.754-0.54-4.16    c0.052-1.566-0.553-3.082-1.67-4.18l-0.94-0.93c-1.093-1.118-2.607-1.725-4.17-1.67c-1.411,0.023-2.817-0.169-4.17-0.57    c-5.62-1.51-11.73,0.75-16.18,5.19c-4.13,4.19-6.4,9.81-5.44,15.13C4.304,26.708,6.203,23.183,9.005,20.451z"/>
		<path style="fill:#45413C;" d="M18.83,44.079c-1.245,0-2.475-0.156-3.665-0.475c-1.314-0.379-2.654-0.557-4.02-0.523    c-1.699,0.038-3.355-0.606-4.547-1.819l-0.927-0.927c-1.207-1.191-1.874-2.85-1.826-4.547c0.036-1.356-0.136-2.705-0.511-4.008    c-1.49-5.555,0.549-11.955,5.317-16.713c4.771-4.76,11.153-6.798,16.663-5.319c1.318,0.391,2.669,0.583,4.031,0.553    c1.714-0.055,3.349,0.605,4.537,1.821l0.934,0.924c1.212,1.192,1.875,2.852,1.818,4.552c-0.032,1.354,0.143,2.702,0.521,4.004    c0.001,0.003,0.002,0.007,0.003,0.01c1.472,5.525-0.57,11.913-5.33,16.672C28.094,42.019,23.36,44.079,18.83,44.079z     M11.45,42.077c1.35,0,2.687,0.189,3.984,0.563c5.163,1.387,11.179-0.554,15.687-5.063c4.507-4.507,6.45-10.523,5.072-15.703    c-0.405-1.398-0.593-2.847-0.559-4.306c0.048-1.427-0.506-2.814-1.521-3.812l-0.94-0.931c-0.998-1.021-2.392-1.57-3.802-1.526    c-1.465,0.028-2.927-0.173-4.33-0.59c-5.151-1.386-11.165,0.556-15.684,5.064c-4.516,4.506-6.455,10.536-5.06,15.736    c0.401,1.394,0.585,2.845,0.547,4.304c-0.04,1.422,0.518,2.811,1.531,3.811l0.933,0.932c1,1.018,2.382,1.578,3.81,1.523    C11.229,42.079,11.339,42.077,11.45,42.077z"/>
		<path id="_Path_2_517_" style="fill:#DEBB7E;" d="M32.145,13.231c1.774-1.987,4.05-3.458,6.59-4.26c2.48-0.67,3,0.84,3.14,2    c0.046,0.603-0.398,1.132-1,1.19c-2.585,0.28-5.064,1.186-7.22,2.64C32.305,14.901,32.145,13.231,32.145,13.231z"/>
		<path id="_Path_3_514_" style="fill:#F0D5A8;" d="M32.765,14.501c1.671-1.681,3.732-2.921,6-3.61c1.7-0.45,2.49,0.12,2.86,0.89    c0.198-0.226,0.298-0.52,0.28-0.82c-0.09-1.14-0.66-2.65-3.14-2c-2.552,0.8-4.839,2.275-6.62,4.27    C32.203,13.712,32.422,14.159,32.765,14.501z"/>
		<path style="fill:#45413C;" d="M33.545,15.305c-1.343,0-1.829-1.31-1.898-2.026c-0.013-0.139,0.032-0.277,0.126-0.381    c1.835-2.048,4.19-3.571,6.812-4.403c1.125-0.301,2.017-0.229,2.666,0.212c0.626,0.423,0.992,1.144,1.121,2.205    c0.068,0.89-0.582,1.664-1.448,1.748c-2.487,0.273-4.906,1.158-6.989,2.557c-0.072,0.049-0.157,0.078-0.245,0.084    C33.64,15.303,33.592,15.305,33.545,15.305z M32.678,13.388c0.071,0.319,0.275,0.877,0.824,0.914    c2.188-1.44,4.715-2.352,7.318-2.638c0.335-0.032,0.581-0.326,0.556-0.655c-0.089-0.733-0.314-1.223-0.687-1.475    c-0.398-0.271-1.015-0.296-1.825-0.08C36.511,10.202,34.37,11.562,32.678,13.388z M32.145,13.231h0.01H32.145z"/>
		<path id="_Path_5_501_" style="fill:#6DD627;" d="M32.195,13.231c1.199-3.522,0.134-7.418-2.69-9.84    c-2.722-2.846-6.932-3.689-10.54-2.11c-0.396,0.174-0.648,0.568-0.64,1c-0.042,3.088,1.346,6.023,3.76,7.95    C26.035,13.231,30.075,9.771,32.195,13.231z"/>
		<path id="_Path_6_465_" style="fill:#9CEB60;" d="M18.965,4.231c3.6-1.583,7.806-0.757,10.54,2.07    c1.612,1.434,2.687,3.374,3.05,5.5c0.529-3.159-0.627-6.365-3.05-8.46c-2.734-2.829-6.942-3.652-10.54-2.06    c-0.396,0.174-0.648,0.568-0.64,1c0.009,0.763,0.093,1.523,0.25,2.27C18.678,4.415,18.811,4.305,18.965,4.231z"/>
		<path style="fill:#45413C;" d="M32.195,13.731c-0.173,0-0.335-0.089-0.427-0.239c-0.938-1.533-2.255-1.488-4.085-1.429    c-1.798,0.058-3.843,0.128-5.901-1.435c-2.563-2.045-4.002-5.088-3.958-8.355c-0.012-0.619,0.356-1.195,0.938-1.451    c3.785-1.656,8.247-0.763,11.103,2.222c2.96,2.536,4.074,6.61,2.803,10.347c-0.063,0.184-0.226,0.314-0.418,0.336    C32.233,13.73,32.214,13.731,32.195,13.731z M28.597,11.043c1.226,0,2.425,0.16,3.384,1.107c0.685-3.08-0.362-6.287-2.801-8.379    c-2.603-2.718-6.612-3.521-10.014-2.032c-0.211,0.093-0.345,0.302-0.34,0.532c-0.04,2.972,1.262,5.725,3.572,7.569    c1.765,1.34,3.538,1.283,5.253,1.224C27.965,11.054,28.281,11.043,28.597,11.043z"/>
		<path style="fill:#45413C;" d="M32.195,13.731c-0.275,0-0.499-0.223-0.5-0.499c-0.001-0.229-0.077-5.639-5.262-7.923    c-0.253-0.111-0.368-0.406-0.257-0.659c0.112-0.253,0.408-0.367,0.659-0.256c5.792,2.552,5.859,8.775,5.859,8.837    C32.695,13.507,32.472,13.73,32.195,13.731L32.195,13.731z"/>
	</g>
</g>















</svg>
